:SAMPLES-PER-SECOND 30
:FULLY-SPECIFIED
:DEGREES
99
root  5.20303 40.1067 2.95301 148.696 -85.7426 -149.723
RightUpLeg  0.463004 -7.87612 -7.37156
RightLeg  0.138162 -1.14898 -0.348352
RightFoot  4.09991 -1.64107 12.277
RightToes  1.16414e-010 0 -3.6325e-017
Spine  4.24918 -2.02536 -0.512061
Spine1  6.03777 -2.61512 2.00698
HEad  -4.28825 -32.9692 2.47349
LeftShoulder1  1.72963 -4.57738 -14.5237
LeftArm  10.6754 20.66 -56.7483
LeftForeArm  -4.88492 -23.7121 -5.31752
LeftHand  -0.51744 0.288497 11.8272
RightShoulder  1.39272 2.25502 17.6536
RightArm  12.2096 -22.1611 50.356
RightForeArm  8.66854 27.0883 5.37233
RightHand  -0.691258 0.708995 -13.2379
LeftUpLeg  4.84 12.2788 14.6263
LeftLeg  1.29876 8.6382 2.03884
LeftFoot  0.404913 1.71423 -16.56
LeftToes  7.09373e-011 9.9627e-011 8.96859e-012
100
root  5.19846 40.1069 2.94944 149.244 -85.5707 -150.285
RightUpLeg  0.473523 -7.83849 -7.29781
RightLeg  0.0783593 -1.05806 -0.348111
RightFoot  4.14884 -1.6426 12.2535
RightToes  1.16414e-010 0 -3.6325e-017
Spine  4.32081 -2.13741 -0.677978
Spine1  5.99206 -2.74094 2.03037
HEad  -3.62257 -34.1814 2.2697
LeftShoulder1  1.76854 -4.67029 -14.7793
LeftArm  10.2926 21.2079 -56.3603
LeftForeArm  -4.99513 -24.1712 -5.41572
LeftHand  -0.530791 0.440581 12.4871
RightShoulder  1.38319 2.23037 17.5861
RightArm  13.0313 -21.6515 50.4647
RightForeArm  8.52839 26.4639 5.23709
RightHand  -0.635882 0.559817 -12.4877
LeftUpLeg  4.93897 12.3596 14.7297
LeftLeg  1.26929 8.69945 1.99695
LeftFoot  0.408316 1.7156 -16.5869
LeftToes  7.09373e-011 9.9627e-011 8.96859e-012
101
root  5.201 40.1073 2.94904 150.533 -85.3241 -151.567
RightUpLeg  0.425906 -7.85473 -7.26819
RightLeg  0.024336 -0.832185 -0.291648
RightFoot  4.20244 -1.64436 12.2181
RightToes  1.16414e-010 0 -3.6325e-017
Spine  4.44718 -2.23301 -0.958725
Spine1  5.87991 -2.912 2.31279
HEad  -3.19497 -31.9273 2.21437
LeftShoulder1  1.80005 -4.79565 -14.8379
LeftArm  10.5298 21.7026 -56.4334
LeftForeArm  -5.53435 -24.0329 -5.41212
LeftHand  -0.564612 0.46181 13.336
RightShoulder  1.38923 2.2528 17.5977
RightArm  13.311 -21.3367 50.2622
RightForeArm  8.79816 26.2853 5.18218
RightHand  -0.614715 0.582511 -12.0334
LeftUpLeg  5.01756 12.4381 14.8052
LeftLeg  1.27756 8.85574 1.95431
LeftFoot  0.40303 1.71497 -16.6018
LeftToes  7.09373e-011 9.9627e-011 8.96859e-012
102
root  5.20742 40.1076 2.95432 151.844 -85.04 -152.842
RightUpLeg  0.347869 -7.84769 -7.23214
RightLeg  -0.0612336 -0.573397 -0.245346
RightFoot  4.27411 -1.65325 12.2289
RightToes  1.16414e-010 0 -3.6325e-017
Spine  4.6186 -2.25722 -1.21219
Spine1  5.64401 -3.03311 2.70888
HEad  -2.99151 -27.7491 2.07206
LeftShoulder1  1.79358 -4.81348 -14.7014
LeftArm  11.4088 21.8424 -56.8968
LeftForeArm  -6.16703 -23.227 -5.37523
LeftHand  -0.591229 0.327373 13.6077
RightShoulder  1.40267 2.28193 17.718
RightArm  13.0583 -21.3813 49.8185
RightForeArm  8.95388 26.4745 5.21674
RightHand  -0.645128 0.743771 -12.2992
LeftUpLeg  5.02239 12.4924 14.8512
LeftLeg  1.3751 9.08443 1.95345
LeftFoot  0.366533 1.71055 -16.6085
LeftToes  7.09373e-011 9.9627e-011 8.96859e-012
103
root  5.21289 40.1079 2.9638 152.752 -84.7983 -153.665
RightUpLeg  0.243576 -7.77899 -7.16506
RightLeg  -0.181137 -0.413011 -0.25641
RightFoot  4.35669 -1.6704 12.2915
RightToes  1.16414e-010 0 -3.6325e-017
Spine  4.70666 -2.22064 -1.34941
Spine1  5.48306 -3.07404 3.03992
HEad  -3.23281 -23.1955 1.68114
LeftShoulder1  1.77279 -4.75786 -14.5847
LeftArm  11.9653 21.6384 -57.2705
LeftForeArm  -5.98004 -22.2329 -5.59988
LeftHand  -0.580307 0.104416 12.8093
RightShoulder  1.40981 2.27741 17.8733
RightArm  12.4877 -21.669 49.3954
RightForeArm  8.59585 26.7601 5.30102
RightHand  -0.701023 0.921077 -12.9925
LeftUpLeg  4.92649 12.5184 14.8644
LeftLeg  1.52524 9.31502 1.98428
LeftFoot  0.312407 1.70408 -16.6198
LeftToes  7.09373e-011 9.9627e-011 8.96859e-012
104
root  5.21508 40.1081 2.97705 153.59 -84.6493 -154.39
RightUpLeg  0.12628 -7.72258 -7.13495
RightLeg  -0.289417 -0.329327 -0.291284
RightFoot  4.42417 -1.68788 12.3667
RightToes  1.16414e-010 0 -3.6325e-017
Spine  4.65142 -2.17096 -1.35887
Spine1  5.56509 -3.05371 3.16474
HEad  -4.06923 -19.1272 1.21165
LeftShoulder1  1.76986 -4.75685 -14.5486
LeftArm  12.0241 21.3428 -57.374
LeftForeArm  -5.18674 -21.5375 -5.90078
LeftHand  -0.5444 -0.0714567 11.65
RightShoulder  1.41011 2.25581 17.9786
RightArm  12.0253 -21.9338 49.2111
RightForeArm  7.66714 26.8302 5.36711
RightHand  -0.746059 1.04872 -13.5527
LeftUpLeg  4.81428 12.5069 14.8155
LeftLeg  1.60052 9.5193 1.99938
LeftFoot  0.277399 1.69869 -16.6158
LeftToes  7.09373e-011 9.9627e-011 8.96859e-012
105
root  5.21325 40.1081 2.99371 154.744 -84.5781 -155.476
RightUpLeg  0.019273 -7.75233 -7.21021
RightLeg  -0.283909 -0.210423 -0.298181
RightFoot  4.43111 -1.69569 12.4171
RightToes  1.16414e-010 0 -3.6325e-017
Spine  4.56219 -2.14343 -1.28891
Spine1  5.76856 -3.00154 3.05014
HEad  -5.26755 -15.8345 0.841381
LeftShoulder1  1.78083 -4.80952 -14.5445
LeftArm  11.9575 21.1425 -57.3214
LeftForeArm  -4.48246 -21.1967 -6.06764
LeftHand  -0.529329 -0.0700409 11.3339
RightShoulder  1.412 2.25254 18.0296
RightArm  12.1836 -21.9829 49.2887
RightForeArm  6.47497 26.4436 5.34293
RightHand  -0.765959 1.14978 -13.7015
LeftUpLeg  4.78524 12.4602 14.7001
LeftLeg  1.58273 9.69676 1.98559
LeftFoot  0.262069 1.69343 -16.5836
LeftToes  7.09373e-011 9.9627e-011 8.96859e-012
106
root  5.20876 40.1079 3.01105 155.952 -84.551 -156.686
RightUpLeg  -0.0423693 -7.83438 -7.34894
RightLeg  -0.186454 -0.0532102 -0.281585
RightFoot  4.39855 -1.69377 12.4217
RightToes  1.16414e-010 0 -3.6325e-017
Spine  4.5399 -2.13218 -1.23386
Spine1  5.90096 -2.95225 2.87601
HEad  -6.50346 -13.2364 0.535587
LeftShoulder1  1.79044 -4.80783 -14.6764
LeftArm  11.8777 21.0271 -57.1257
LeftForeArm  -4.19098 -21.064 -6.13422
LeftHand  -0.543618 0.111057 12.0211
RightShoulder  1.41662 2.26288 18.0688
RightArm  13.0721 -21.8083 49.497
RightForeArm  5.61218 25.5979 5.19741
RightHand  -0.760775 1.23073 -13.4497
LeftUpLeg  4.83511 12.4086 14.572
LeftLeg  1.54677 9.82558 1.96175
LeftFoot  0.260575 1.69026 -16.5477
LeftToes  7.09373e-011 9.9627e-011 8.96859e-012
107
root  5.20521 40.1075 3.02558 156.703 -84.5634 -157.46
RightUpLeg  -0.062404 -7.88428 -7.45514
RightLeg  -0.111092 0.0335024 -0.283736
RightFoot  4.37988 -1.68749 12.3934
RightToes  1.16414e-010 0 -3.6325e-017
Spine  4.51137 -2.09903 -1.25463
Spine1  6.01531 -2.91584 2.84827
HEad  -7.58121 -11.1736 0.247292
LeftShoulder1  1.7975 -4.71945 -15.0239
LeftArm  11.7022 20.8971 -56.7903
LeftForeArm  -4.41403 -21.1194 -6.10596
LeftHand  -0.553043 0.306105 12.678
RightShoulder  1.4229 2.2742 18.1345
RightArm  14.1475 -21.5783 49.69
RightForeArm  5.44535 24.6035 4.98354
RightHand  -0.733763 1.21009 -13.0186
LeftUpLeg  4.87242 12.3899 14.4877
LeftLeg  1.53911 9.86886 1.92972
LeftFoot  0.264652 1.68727 -16.5234
LeftToes  7.09373e-011 9.9627e-011 8.96859e-012
108
root  5.20596 40.1059 3.03683 156.866 -84.6237 -157.62
RightUpLeg  -0.0882482 -7.87662 -7.49481
RightLeg  -0.0592671 -0.0108228 -0.322182
RightFoot  4.36481 -1.68363 12.3793
RightToes  1.16414e-010 0 -3.6325e-017
Spine  4.37988 -2.01987 -1.26781
Spine1  6.27183 -2.84773 2.88235
HEad  -8.35512 -9.68875 0.0706117
LeftShoulder1  1.79666 -4.60513 -15.3487
LeftArm  11.3253 20.7033 -56.5475
LeftForeArm  -4.96177 -21.3741 -5.97218
LeftHand  -0.543463 0.339626 12.5397
RightShoulder  1.43956 2.31386 18.2625
RightArm  14.7789 -21.5094 49.8104
RightForeArm  5.6467 23.8235 4.8079
RightHand  -0.706952 1.08045 -12.7928
LeftUpLeg  4.83321 12.4091 14.4538
LeftLeg  1.58132 9.81088 1.88658
LeftFoot  0.239128 1.68092 -16.4959
LeftToes  7.09373e-011 9.9627e-011 8.96859e-012
